<svg width="25" height="24" viewBox="0 0 25 24" fill="none" xmlns="http://www.w3.org/2000/svg">
<g clip-path="url(#clip0_2072_663)">
<mask id="mask0_2072_663" style="mask-type:luminance" maskUnits="userSpaceOnUse" x="0" y="0" width="25" height="24">
<path d="M25 0H0V24H25V0Z" fill="white"/>
</mask>
<g mask="url(#mask0_2072_663)">
<mask id="mask1_2072_663" style="mask-type:luminance" maskUnits="userSpaceOnUse" x="0" y="0" width="25" height="24">
<path d="M0.217773 0H24.4113V24H0.217773V0Z" fill="white"/>
</mask>
<g mask="url(#mask1_2072_663)">
<path d="M12.3226 6.00866e-06C9.11436 -0.00317659 6.03622 1.25805 3.76537 3.50624C1.49451 5.75443 0.216959 8.80541 0.213751 11.988C0.210543 15.1706 1.48194 18.2241 3.74826 20.4768C6.01458 22.7295 9.09016 23.9968 12.2984 24C15.5067 24.0032 18.5848 22.742 20.8557 20.4938C23.1265 18.2456 24.4041 15.1946 24.4073 12.012C24.4105 8.82941 23.1391 5.7759 20.8728 3.52321C18.6065 1.27052 15.5309 0.00318861 12.3226 6.00866e-06ZM12.2984 22C9.62488 22 7.06082 20.9464 5.17034 19.0711C3.27985 17.1957 2.21778 14.6522 2.21778 12C2.21778 9.34784 3.27985 6.8043 5.17034 4.92894C7.06082 3.05357 9.62488 2.00001 12.2984 2.00001C14.972 2.00001 17.536 3.05357 19.4265 4.92894C21.317 6.8043 22.3791 9.34784 22.3791 12C22.3791 14.6522 21.317 17.1957 19.4265 19.0711C17.536 20.9464 14.972 22 12.2984 22Z" fill="#3E4750"/>
<path d="M15.5641 11.416C16.3705 10.96 16.8141 10.056 16.6609 9.152C16.4754 7.744 14.7899 7.216 13.4592 7.104V5H12.1528V7.08H11.2657V5H9.95924V7.08H7.32214V8.44H8.30601C8.7415 8.44 8.95118 8.568 8.95118 8.92V14.704C8.95118 15.184 8.70924 15.336 8.45118 15.336H7.45118V16.712H9.99956V18.848H11.3141V16.712H12.2012V18.848H13.4834V16.712H13.7657C16.4592 16.712 17.3544 15.4 17.3544 13.616C17.3425 13.1059 17.1615 12.6139 16.8393 12.2162C16.5171 11.8185 16.0717 11.5373 15.5721 11.416H15.5641ZM11.2738 8.52H12.2092C12.8625 8.52 14.1528 8.632 14.1528 9.688C14.2012 10.376 13.6931 10.984 12.9996 11.072H11.2738V8.512V8.52ZM12.7254 15.208V15.192H11.2738V12.408H12.9592C13.3463 12.408 14.8302 12.536 14.8302 13.576C14.8302 14.616 14.1286 15.208 12.7254 15.208Z" fill="#3E4750"/>
</g>
</g>
</g>
<defs>
<clipPath id="clip0_2072_663">
<rect width="25" height="24" fill="white"/>
</clipPath>
</defs>
</svg>
