<svg width="41" height="24" viewBox="0 0 41 24" fill="none" xmlns="http://www.w3.org/2000/svg">
<g clip-path="url(#clip0_2072_642)">
<mask id="mask0_2072_642" style="mask-type:luminance" maskUnits="userSpaceOnUse" x="0" y="0" width="41" height="24">
<path d="M41 0H0V24H41V0Z" fill="white"/>
</mask>
<g mask="url(#mask0_2072_642)">
<g opacity="0.55">
<path opacity="0.55" d="M36.5062 11.376C35.9194 11.376 35.4933 12.064 35.4933 13.04C35.4933 13.68 35.7184 14.016 36.1605 14.016C36.7715 14.016 37.2056 13.328 37.2056 12.344C37.2056 11.72 36.9645 11.376 36.5062 11.376ZM28.8127 13.68C28.8127 13.992 28.9976 14.192 29.279 14.192C29.8096 14.192 30.1954 13.68 30.2196 12.952C30.1237 12.9376 30.0271 12.9296 29.9302 12.928C29.1825 12.928 28.8047 13.184 28.8047 13.68H28.8127Z" fill="#3E4750"/>
<path opacity="0.55" d="M28.2257 1.02121e-05C26.4463 -0.00230514 24.6886 0.389122 23.0799 1.14596C21.4713 1.90279 20.0518 3.0061 18.9243 4.37601H21.3522C21.6898 4.77601 21.9953 5.20001 22.2767 5.64801H17.9998C17.7506 6.05601 17.5175 6.48001 17.3084 6.92001H22.968C23.161 7.32801 23.3298 7.75201 23.4826 8.19201H16.802C16.6573 8.60801 16.5447 9.02401 16.4482 9.45601H23.8282L23.9569 10.176C23.989 10.4 24.0212 10.624 24.0373 10.848C24.5116 9.66401 25.4602 8.92801 26.6741 8.92801C27.2369 8.92801 27.9202 9.16801 28.1131 9.24001L27.8961 10.56C27.4298 10.32 27.0922 10.232 26.7224 10.232C25.7577 10.232 25.0663 11.168 25.0663 12.512C25.0663 13.432 25.5245 13.992 26.2882 13.992C26.6098 13.992 26.9635 13.896 27.3977 13.672L27.1645 15.064C26.6822 15.2 26.3767 15.248 26.0069 15.248C25.5631 15.2684 25.1244 15.1475 24.7543 14.903C24.3843 14.6584 24.1021 14.3029 23.9488 13.888C23.8443 14.552 23.6835 15.192 23.4826 15.808H16.802C16.9467 16.248 17.1155 16.672 17.3084 17.088H22.968C22.759 17.52 22.5339 17.944 22.2767 18.352H18.0079C18.2812 18.8 18.5867 19.224 18.9243 19.632H21.3522C20.9815 20.0819 20.5785 20.5043 20.1463 20.896C21.5981 22.1994 23.3467 23.1316 25.2414 23.6123C27.1361 24.093 29.1198 24.1077 31.0214 23.6551C32.9231 23.2026 34.6855 22.2963 36.1566 21.0146C37.6277 19.7329 38.7634 18.1143 39.4655 16.2983C40.1676 14.4824 40.4152 12.5237 40.1868 10.5913C39.9584 8.65885 39.261 6.81077 38.1546 5.20648C37.0482 3.60219 35.5662 2.28989 33.8364 1.38283C32.1066 0.475759 30.181 0.00116899 28.2257 1.02121e-05ZM31.168 15.152H30.0908L30.1149 14.64C29.7853 15.04 29.3431 15.24 28.7482 15.24C28.0247 15.24 27.5424 14.688 27.5424 13.888C27.5424 12.688 28.3945 11.984 29.8416 11.984C29.9863 11.984 30.1792 11.992 30.3722 12.016C30.4124 11.856 30.4284 11.784 30.4284 11.696C30.4284 11.376 30.1953 11.248 29.5843 11.248C29.118 11.248 28.6518 11.328 28.2016 11.472L28.3865 10.352C28.8928 10.1874 29.4215 10.1011 29.9541 10.096C31.0796 10.096 31.6665 10.592 31.6665 11.544C31.6665 11.8 31.6263 12.112 31.562 12.528C31.4494 13.248 31.2082 14.784 31.1761 15.152H31.168ZM32.9126 15.152H31.6102L31.6665 14.824C31.8916 13.288 32.181 11.736 32.3498 10.208H33.5557C33.5557 10.456 33.5075 10.704 33.4753 10.952C33.8773 10.368 34.1747 10.064 34.7214 10.176C34.4833 10.6276 34.3178 11.1135 34.231 11.616C33.4914 11.536 33.3788 12.128 32.9126 15.152ZM36.8518 15.152L36.9161 14.696C36.5543 15.072 36.1926 15.24 35.7102 15.24C34.7616 15.24 34.1345 14.424 34.1345 13.184C34.1345 11.544 35.1073 10.152 36.2569 10.152C36.7714 10.152 37.1492 10.36 37.511 10.824L37.8004 9.06401H39.0867L38.0979 15.152H36.8518Z" fill="#3E4750"/>
</g>
<path d="M19.0288 11.2236C18.6108 11.2236 18.3213 11.5436 18.2008 12.1036H19.6317C19.6398 11.9996 19.7684 11.2236 19.0288 11.2236ZM8.20801 13.6796C8.20801 13.9916 8.38487 14.1916 8.67428 14.1916C9.20487 14.1916 9.59075 13.6796 9.61487 12.9516C9.51639 12.9369 9.41701 12.9288 9.31742 12.9276C8.57781 12.9276 8.20801 13.1836 8.20801 13.6796Z" fill="#3E4750"/>
<path d="M23.7235 12.6156C23.7235 11.9516 23.8361 11.3596 24.0451 10.8476L24.029 10.7276L24.0129 10.5676L23.9566 10.1756C23.7959 10.4476 23.5788 10.9916 23.4582 11.6156C22.7347 11.5356 22.6141 12.1276 22.1478 15.1516H20.8374L20.9017 14.8236C21.1268 13.2876 21.4163 11.7356 21.5851 10.2076H22.7829C22.791 10.4556 22.7347 10.7036 22.7025 10.9516C23.1045 10.3676 23.41 10.0636 23.9566 10.1756L23.9486 10.1116L23.9164 9.92759L23.8361 9.50359L23.828 9.45559H16.448C16.5445 9.02359 16.657 8.59959 16.7937 8.18359H23.4662C23.3382 7.80297 23.1906 7.42915 23.0241 7.06359L22.9678 6.91959H17.3082C17.5172 6.47959 17.7504 6.05559 17.9996 5.64759H22.2684L22.0513 5.31159L21.987 5.21559C21.7861 4.92759 21.577 4.64759 21.3519 4.37559H18.9241C19.2939 3.92759 19.7039 3.49559 20.13 3.10359C18.4002 1.54196 16.2519 0.51382 13.9461 0.144057C11.6402 -0.225705 9.27615 0.0788254 7.14094 1.02066C5.00574 1.96248 3.19133 3.50108 1.91812 5.44953C0.644911 7.39799 -0.0323004 9.67245 -0.0312488 11.9966C-0.0301972 14.3208 0.649073 16.5946 1.92404 18.542C3.19902 20.4893 5.01482 22.0262 7.15087 22.9662C9.28693 23.9061 11.6513 24.2085 13.9568 23.8367C16.2623 23.4648 18.4096 22.4348 20.138 20.8716L20.1702 20.8556L20.5239 20.5196L20.6445 20.3996L20.8857 20.1436L21.0143 20.0076L21.2796 19.7036L21.36 19.6236H18.9161C18.5945 19.2156 18.281 18.7916 17.9996 18.3436H22.2684L22.3247 18.2636L22.6462 17.7116L22.8874 17.2316L22.9276 17.1676L22.9678 17.0796H17.3082C17.1153 16.6636 16.9464 16.2396 16.8017 15.7996H23.4743L23.5306 15.6396L23.5788 15.4876L23.6994 15.0876L23.7315 14.9596C23.8223 14.6035 23.8947 14.243 23.9486 13.8796C23.7878 13.4796 23.7155 13.0476 23.7235 12.6156ZM5.08056 15.1516L5.83625 10.4796L4.16409 15.1516H3.27174L3.15919 10.5036L2.37135 15.1516H1.14939L2.17037 9.07159H4.05154L4.09978 12.8316L5.36998 9.07159H7.4039L6.39096 15.1516H5.08056ZM9.47801 15.1516L9.50213 14.6396C9.18056 15.0476 8.73037 15.2396 8.13547 15.2396C7.42801 15.2396 6.93762 14.6876 6.93762 13.8876C6.93762 12.6876 7.78174 11.9836 9.23684 11.9836C9.38154 11.9836 9.57448 11.9916 9.76743 12.0236C9.80762 11.8556 9.81566 11.7836 9.81566 11.7036C9.81566 11.3676 9.59056 11.2476 8.97958 11.2476C8.50527 11.2476 8.03899 11.3276 7.59684 11.4716L7.78174 10.3516C8.2855 10.1878 8.81142 10.1015 9.34135 10.0956C10.4668 10.0956 11.0617 10.5996 11.0617 11.5436C11.0617 11.7996 11.0215 12.1116 10.9572 12.5276C10.8447 13.2476 10.5955 14.7836 10.5633 15.1516H9.48605H9.47801ZM13.3047 12.2076C13.9639 12.5116 14.2292 12.9036 14.2292 13.5836C14.2292 14.7196 13.5941 15.2396 12.2194 15.2396C11.4155 15.2156 11.1502 15.1596 10.8527 15.0956L11.0296 13.9516C11.4476 14.0876 11.8174 14.1436 12.2033 14.1436C12.7259 14.1436 12.959 14.0076 12.959 13.7036C12.959 13.4716 12.8786 13.3996 12.348 13.1516C11.6566 12.8316 11.3512 12.3996 11.3512 11.7756C11.3512 10.8556 11.8496 10.0956 13.3127 10.0956C13.6102 10.0956 14.1247 10.1436 14.4623 10.1916L14.2774 11.3436C13.9659 11.2969 13.6518 11.2702 13.3368 11.2636C12.9188 11.2636 12.6937 11.4076 12.6937 11.6716C12.6937 11.9036 12.7661 11.9596 13.3127 12.2076H13.3047ZM16.7857 11.3916H16.1184C15.9657 12.3356 15.7486 13.5116 15.7486 13.6636C15.7486 13.9196 15.8853 14.0316 16.1988 14.0316C16.3435 14.0316 16.4641 14.0156 16.5525 13.9836L16.3757 15.0796C16.0139 15.1916 15.7325 15.2396 15.4351 15.2396C14.7678 15.2396 14.398 14.8556 14.398 14.1516C14.398 13.9356 14.5025 13.3516 14.5829 12.8316L15.1457 9.45559H16.448L16.2953 10.2076H16.9625L16.7857 11.3996V11.3916ZM19.2296 14.1196C19.6959 14.1196 20.1139 14.0236 20.5802 13.8076L20.3631 15.0396C19.921 15.1756 19.4868 15.2396 19.0286 15.2396C17.5815 15.2396 16.8178 14.4796 16.8178 13.0316C16.8178 11.3436 17.7825 10.0956 19.0929 10.0956C20.1621 10.0956 20.8455 10.7916 20.8455 11.8876C20.8455 12.2476 20.7972 12.6076 20.6847 13.1036H18.0961C18.0157 13.8236 18.4739 14.1196 19.2215 14.1196H19.2296Z" fill="#3E4750"/>
</g>
</g>
<defs>
<clipPath id="clip0_2072_642">
<rect width="41" height="24" fill="white"/>
</clipPath>
</defs>
</svg>
