<svg width="49" height="13" viewBox="0 0 49 13" fill="none" xmlns="http://www.w3.org/2000/svg">
<mask id="mask0_2072_637" style="mask-type:luminance" maskUnits="userSpaceOnUse" x="0" y="0" width="49" height="13">
<path d="M49 0H0V13H49V0Z" fill="white"/>
</mask>
<g mask="url(#mask0_2072_637)">
<path fill-rule="evenodd" clip-rule="evenodd" d="M43.5792 0H34.277C34.7748 2.88167 37.777 5.57556 41.0748 5.57556H48.4792C48.5803 5.29389 48.5803 4.92556 48.5803 4.64389C48.5803 2.04389 46.3792 0 43.5792 0ZM35.0781 6.03778V13H39.5737V9.28778H43.5792C44.6327 9.28019 45.6561 8.96101 46.5008 8.37658C47.3456 7.79215 47.9678 6.9729 48.277 6.03778H35.0781ZM19.0792 0V13H23.077C23.077 13 24.0803 13 24.5781 12.0756L28.0781 5.57556H28.5759V13H33.0792V0H29.0737C29.0737 0 28.0781 0.0938889 27.5803 0.938889L24.0803 7.43889H23.5748V0H19.0792ZM0.078125 13V0H4.57368C4.57368 0 5.88035 0 6.58035 1.85611C8.37701 6.78167 8.57924 7.43167 8.57924 7.43167C8.57924 7.43167 8.9759 6.22556 10.5781 1.85611C11.2781 0 12.577 0 12.577 0H17.0803V13H12.577V6.03778H12.0792L9.56701 13H7.5759L5.07924 6.03778H4.57368V13H0.078125Z" fill="#3E4750"/>
</g>
</svg>
