<svg width="49" height="20" viewBox="0 0 49 20" fill="none" xmlns="http://www.w3.org/2000/svg">
<path d="M20.9659 16.833H17.4154L19.6405 3.19967H23.199L20.974 16.833H20.9659ZM42.4295 16.833H45.6989L42.8472 3.19967H39.9795C38.6622 3.19967 38.3408 4.21634 38.3408 4.21634L33.0151 16.833H36.7263L37.4733 14.808H42.0038L42.4215 16.833H42.4295ZM38.5095 12.008L40.3812 6.90801L41.4254 12.008H38.5095ZM33.3043 6.47467L33.8104 3.54967C33.8104 3.54967 32.244 2.95801 30.6133 2.95801C28.8461 2.95801 24.6449 3.72467 24.6449 7.46634C24.6449 10.9913 29.569 11.033 29.569 12.883C29.569 14.733 25.151 14.3997 23.6971 13.233L23.1669 16.2913C23.1669 16.2913 24.7574 17.0663 27.1833 17.0663C29.6172 17.0663 33.2882 15.8163 33.2882 12.3997C33.2882 8.85801 28.3079 8.52467 28.3079 6.98301C28.3079 5.44134 31.7781 5.64134 33.3043 6.48301V6.47467ZM14.4192 3.19967L11.0213 12.5747L10.6197 10.558L10.6117 10.508C10.3867 9.92467 9.47101 7.83301 7.31822 6.09134C6.83625 5.70801 6.32216 5.34134 5.79199 5.02467L8.87658 16.833H12.5797L18.2508 3.19967H14.4192Z" fill="#3E4750"/>
<path d="M10.6676 10.6671L9.44664 4.40039C9.44664 4.40039 9.29402 3.15039 7.71959 3.15039H1.98418L1.91992 3.37539C1.91992 3.37539 4.67517 3.94206 7.31795 6.08372C8.81192 7.27077 9.9692 8.85428 10.6676 10.6671Z" fill="#3E4750"/>
</svg>
