<svg width="18" height="18" viewBox="0 0 18 18" fill="none" xmlns="http://www.w3.org/2000/svg">
<path d="M6.29956 13.6272V6.26381C6.29956 5.97391 6.38687 5.69126 6.54693 5.4521L8.53318 2.50962C8.84603 2.03854 9.62452 1.70516 10.2866 1.95157C10.9996 2.19074 11.4725 2.98796 11.3197 3.69821L10.9414 6.06813C10.9123 6.28555 10.9705 6.48124 11.0942 6.63343C11.2179 6.77113 11.3998 6.8581 11.5962 6.8581H14.5865C15.1613 6.8581 15.656 7.09002 15.947 7.49588C16.2235 7.88724 16.2744 8.39457 16.0925 8.90913L14.3027 14.3375C14.0772 15.2362 13.095 15.9682 12.1201 15.9682H9.28256C8.7951 15.9682 8.11119 15.8015 7.79834 15.4898L6.86706 14.7723C6.51055 14.5042 6.29956 14.0766 6.29956 13.6272Z" fill="#0082FB"/>
<path d="M4.1222 4.86816H3.37693C2.2554 4.86816 1.79956 5.29854 1.79956 6.36015V13.5762C1.79956 14.6378 2.2554 15.0682 3.37693 15.0682H4.1222C5.24372 15.0682 5.69956 14.6378 5.69956 13.5762V6.36015C5.69956 5.29854 5.24372 4.86816 4.1222 4.86816Z" fill="#0082FB"/>
</svg>
