<svg width="40" height="40" viewBox="0 0 40 40" fill="none" xmlns="http://www.w3.org/2000/svg">
  <path d="M10.48 0H6.68C2.3 0 0 2.3 0 6.66V10.46C0 14.82 2.3 17.12 6.66 17.12H10.46C14.82 17.12 17.12 14.82 17.12 10.46V6.66C17.14 2.3 14.84 0 10.48 0Z" fill="#0082FB" />
  <path d="M33.3399 0H29.5399C25.1799 0 22.8799 2.3 22.8799 6.66V10.46C22.8799 14.82 25.1799 17.12 29.5399 17.12H33.3399C37.6999 17.12 39.9999 14.82 39.9999 10.46V6.66C39.9999 2.3 37.6999 0 33.3399 0Z" fill="#0082FB" />
  <path d="M33.3399 22.86H29.5399C25.1799 22.86 22.8799 25.16 22.8799 29.52V33.32C22.8799 37.68 25.1799 39.98 29.5399 39.98H33.3399C37.6999 39.98 39.9999 37.68 39.9999 33.32V29.52C39.9999 25.16 37.6999 22.86 33.3399 22.86Z" fill="#0082FB" />
  <path d="M10.48 22.86H6.68C2.3 22.86 0 25.16 0 29.52V33.32C0 37.7 2.3 40 6.66 40H10.46C14.82 40 17.12 37.7 17.12 33.34V29.54C17.14 25.16 14.84 22.86 10.48 22.86Z" fill="#0082FB" />
</svg>