<svg width="60" height="61" viewBox="0 0 60 61" fill="none" xmlns="http://www.w3.org/2000/svg">
<path d="M22.2201 30.2C16.5801 30.6 16.6001 38.8 22.2201 39.2H35.5601C37.1801 39.22 38.7401 38.6 39.9401 37.52C43.9001 34.06 41.7801 27.12 36.5801 26.46C34.7201 15.18 18.4201 19.46 22.2801 30.2" fill="#425561"/>
<path d="M24 52C15.46 52 8.5 45.04 8.5 36.5C8.5 35.68 9.18 35 10 35C10.82 35 11.5 35.68 11.5 36.5C11.5 42.42 15.62 47.38 21.16 48.68L20.62 47.78C20.2 47.06 20.42 46.14 21.14 45.72C21.84 45.3 22.78 45.52 23.2 46.24L25.3 49.74C25.58 50.2 25.58 50.78 25.32 51.24C25.04 51.7 24.54 52 24 52Z" fill="#425561"/>
<path d="M49.9999 26C49.1799 26 48.4999 25.32 48.4999 24.5C48.4999 18.58 44.3799 13.62 38.8399 12.32L39.3799 13.22C39.7999 13.94 39.5799 14.86 38.8599 15.28C38.1599 15.7 37.2199 15.48 36.7999 14.76L34.6999 11.26C34.4199 10.8 34.4199 10.22 34.6799 9.76C34.9599 9.3 35.4599 9 35.9999 9C44.5399 9 51.4999 15.96 51.4999 24.5C51.4999 25.32 50.8199 26 49.9999 26Z" fill="#425561"/>
</svg>
